<?xml version="1.0" ?><svg viewBox="0 0 64 64" xmlns="http://www.w3.org/2000/svg"><g data-name="3-home" id="_3-home"><rect height="20" style="fill:#5c92d6" width="12" x="43" y="4"/><rect height="4" style="fill:#7bace6" width="16" x="41" y="1"/><polygon points="58 63 58 24 32 7 6 24 6 63 58 63" style="fill:#a8d7e4"/><path d="M26,41H38a4,4,0,0,1,4,4V63a0,0,0,0,1,0,0H22a0,0,0,0,1,0,0V45A4,4,0,0,1,26,41Z" style="fill:#7bace6"/><rect height="6" style="fill:#7bace6" width="20" x="22" y="27"/><polygon points="63 23 32 3 1 23 1 31 32 11 63 31 63 23" style="fill:#7bace6"/><rect height="2" style="fill:#a8d7e4" width="2" x="46" y="8"/><path d="M55,8H51a1,1,0,0,0,0,2h4Z" style="fill:#a8d7e4"/></g></svg>